<?xml version="1.0" encoding="UTF-8"?>
<svg id="Layer_1" xmlns="http://www.w3.org/2000/svg" viewBox="0 0 1080 1080">
  <defs>
    <style>
      .cls-1 {
        fill: #0f0f3f;
      }

      .cls-2 {
        fill: #6ee81f;
      }
    </style>
  </defs>
  <rect class="cls-1" x="58.25" y="58.25" width="963.5" height="963.5" rx="100.22" ry="100.22"/>
  <g>
    <g>
      <path class="cls-2" d="M134.47,377.05h72.39c12.07,0,21.33,2.99,27.79,8.96,6.46,5.98,9.69,13.37,9.69,22.2,0,7.4-2.3,13.74-6.91,19.04-3.07,3.53-7.57,6.32-13.49,8.37,8.99,2.16,15.61,5.88,19.85,11.14,4.24,5.26,6.36,11.88,6.36,19.85,0,6.49-1.51,12.32-4.52,17.5-3.02,5.18-7.14,9.28-12.38,12.29-3.24,1.88-8.14,3.24-14.68,4.1-8.71,1.14-14.48,1.71-17.33,1.71h-66.76v-125.15ZM173.48,426.14h16.82c6.03,0,10.23-1.04,12.59-3.12,2.36-2.08,3.54-5.08,3.54-9.01,0-3.64-1.18-6.49-3.54-8.54-2.36-2.05-6.47-3.07-12.34-3.07h-17.07v23.73ZM173.48,475.31h19.72c6.66,0,11.35-1.18,14.09-3.54,2.73-2.36,4.1-5.53,4.1-9.52,0-3.7-1.35-6.67-4.06-8.92-2.7-2.25-7.44-3.37-14.21-3.37h-19.64v25.35Z"/>
      <path class="cls-2" d="M270.29,377.05h103.64v26.72h-64.88v19.89h60.19v25.53h-60.19v24.67h66.76v28.34h-105.52v-125.15Z"/>
      <path class="cls-2" d="M387.85,377.05h117.55v30.9h-39.44v94.25h-38.67v-94.25h-39.44v-30.9Z"/>
    </g>
    <g>
      <rect class="cls-2" x="123.86" y="540.58" width="832.27" height="162.37"/>
      <g>
        <path class="cls-1" d="M134.47,559.13h117.55v30.9h-39.44v94.25h-38.67v-94.25h-39.44v-30.9Z"/>
        <path class="cls-1" d="M270.04,684.28v-125.15h64.45c11.95,0,21.09,1.02,27.4,3.07,6.32,2.05,11.41,5.85,15.28,11.4,3.87,5.55,5.81,12.31,5.81,20.28,0,6.94-1.48,12.93-4.44,17.97-2.96,5.04-7.03,9.12-12.21,12.25-3.3,1.99-7.83,3.64-13.58,4.95,4.61,1.54,7.96,3.08,10.07,4.61,1.42,1.03,3.48,3.22,6.19,6.58,2.7,3.36,4.51,5.95,5.42,7.78l18.73,36.27h-43.7l-20.67-38.25c-2.62-4.95-4.95-8.17-7-9.65-2.79-1.93-5.95-2.9-9.48-2.9h-3.41v50.8h-38.84ZM308.88,609.84h16.31c1.76,0,5.18-.57,10.24-1.71,2.56-.51,4.65-1.82,6.27-3.93,1.62-2.1,2.43-4.52,2.43-7.26,0-4.04-1.28-7.14-3.84-9.31-2.56-2.16-7.37-3.24-14.43-3.24h-16.99v25.44Z"/>
        <path class="cls-1" d="M482.46,663.63h-43.9l-6.1,20.66h-39.49l47.04-125.15h42.18l47.03,125.15h-40.5l-6.26-20.66ZM474.44,636.56l-13.81-44.99-13.67,44.99h27.48Z"/>
        <path class="cls-1" d="M621.68,633.06l33.89,10.24c-2.28,9.51-5.86,17.44-10.76,23.82-4.9,6.37-10.97,11.18-18.23,14.43-7.26,3.24-16.49,4.87-27.7,4.87-13.6,0-24.71-1.98-33.34-5.93-8.62-3.95-16.06-10.9-22.32-20.86-6.26-9.95-9.39-22.69-9.39-38.22,0-20.7,5.51-36.61,16.52-47.73,11.01-11.12,26.59-16.68,46.74-16.68,15.76,0,28.16,3.19,37.18,9.56,9.02,6.37,15.72,16.16,20.1,29.37l-34.15,7.6c-1.2-3.81-2.45-6.6-3.76-8.37-2.16-2.96-4.81-5.24-7.94-6.83-3.13-1.59-6.63-2.39-10.5-2.39-8.76,0-15.48,3.53-20.15,10.57-3.53,5.23-5.29,13.44-5.29,24.64,0,13.87,2.11,23.38,6.32,28.52,4.21,5.14,10.13,7.72,17.76,7.72s12.99-2.08,16.78-6.23c3.78-4.15,6.53-10.19,8.24-18.1Z"/>
        <path class="cls-1" d="M674.52,559.13h38.67v47.29l40.51-47.29h51.43l-45.67,47.24,47.72,77.91h-47.62l-26.39-51.47-19.98,20.93v30.54h-38.67v-125.15Z"/>
        <path class="cls-1" d="M924.88,648.02c-.91-1.83-2.72-4.41-5.42-7.78-2.7-3.36-4.76-5.55-6.18-6.58-2.11-1.53-5.46-3.07-10.07-4.61,5.75-1.31,10.28-2.96,13.58-4.96,5.18-3.13,9.25-7.21,12.21-12.25,2.96-5.04,4.44-11.02,4.44-17.97,0-7.96-1.93-14.72-5.8-20.27-3.87-5.55-8.96-9.35-15.28-11.4-6.32-2.05-15.45-3.07-27.41-3.07h-64.45v27.99h41.95v-12.76c.88-1.55,2.42-2.19,3.93-2.19,1.02,0,2.03.3,2.78.86l27.8,20.85c1.54,1.15,1.54,3.01,0,4.16l-27.8,20.85c-1.13.84-2.81,1.1-4.29.64-1.47-.45-2.43-1.53-2.43-2.72v-12h-41.95v79.47h38.85v-50.8h3.41c3.53,0,6.69.97,9.48,2.91,2.05,1.48,4.39,4.69,7,9.64l20.67,38.25h43.69l-18.73-36.26Z"/>
      </g>
    </g>
  </g>
</svg>
