<?xml version="1.0" encoding="UTF-8"?>
<svg id="Layer_1" xmlns="http://www.w3.org/2000/svg" viewBox="0 0 1077.74 204.92">
  <defs>
    <style>
      .cls-1 {
        fill: #0f0f3f;
      }

      .cls-2 {
        fill: #6ee81f;
      }
    </style>
  </defs>
  <rect class="cls-1" x="-26.59" y="-9.16" width="1130.92" height="226.96"/>
  <g>
    <g>
      <path class="cls-2" d="M43.02,44.99h57.07c9.51,0,16.81,2.36,21.9,7.07,5.09,4.71,7.64,10.54,7.64,17.5,0,5.83-1.82,10.83-5.45,15.01-2.42,2.78-5.97,4.98-10.63,6.59,7.09,1.71,12.3,4.63,15.65,8.78,3.34,4.15,5.01,9.37,5.01,15.65,0,5.11-1.19,9.71-3.57,13.8-2.38,4.08-5.63,7.31-9.76,9.69-2.56,1.48-6.42,2.56-11.57,3.23-6.86.9-11.42,1.35-13.66,1.35h-52.62V44.99ZM73.77,83.68h13.26c4.75,0,8.06-.82,9.93-2.46,1.86-1.64,2.79-4,2.79-7.1,0-2.87-.93-5.11-2.79-6.73-1.86-1.62-5.1-2.42-9.72-2.42h-13.46v18.71ZM73.77,122.45h15.55c5.25,0,8.95-.93,11.1-2.79,2.15-1.86,3.23-4.36,3.23-7.5,0-2.92-1.07-5.26-3.2-7.03-2.13-1.77-5.87-2.66-11.2-2.66h-15.48v19.99Z"/>
      <path class="cls-2" d="M150.09,44.99h81.7v21.06h-51.14v15.68h47.44v20.12h-47.44v19.45h52.62v22.34h-83.18V44.99Z"/>
      <path class="cls-2" d="M242.75,44.99h92.67v24.36h-31.09v74.29h-30.48v-74.29h-31.09v-24.36Z"/>
    </g>
    <g>
      <rect class="cls-2" x="378.65" y="38.47" width="656.06" height="127.99"/>
      <g>
        <path class="cls-1" d="M387.01,53.09h92.67v24.36h-31.09v74.29h-30.48v-74.29h-31.09v-24.36Z"/>
        <path class="cls-1" d="M493.88,151.74V53.09h50.81c9.42,0,16.62.81,21.6,2.42,4.98,1.62,8.99,4.61,12.05,8.98,3.05,4.37,4.58,9.7,4.58,15.98,0,5.47-1.17,10.2-3.5,14.17-2.33,3.97-5.54,7.19-9.63,9.66-2.6,1.57-6.17,2.87-10.71,3.9,3.63,1.21,6.28,2.43,7.94,3.64,1.12.81,2.75,2.54,4.88,5.19,2.13,2.65,3.55,4.69,4.27,6.13l14.76,28.59h-34.45l-16.29-30.15c-2.06-3.9-3.9-6.44-5.52-7.6-2.2-1.52-4.69-2.29-7.47-2.29h-2.69v40.04h-30.62ZM524.5,93.06h12.85c1.39,0,4.08-.45,8.08-1.35,2.02-.4,3.67-1.44,4.95-3.1,1.28-1.66,1.92-3.57,1.92-5.72,0-3.19-1.01-5.63-3.03-7.34-2.02-1.7-5.81-2.56-11.37-2.56h-13.39v20.05Z"/>
        <path class="cls-1" d="M661.33,135.46h-34.61l-4.81,16.29h-31.13l37.08-98.66h33.25l37.07,98.66h-31.92l-4.94-16.29ZM655.01,114.12l-10.89-35.46-10.78,35.46h21.67Z"/>
        <path class="cls-1" d="M771.07,111.37l26.72,8.08c-1.79,7.49-4.62,13.75-8.48,18.78-3.86,5.02-8.65,8.82-14.37,11.37-5.72,2.56-13,3.84-21.84,3.84-10.72,0-19.48-1.56-26.28-4.67-6.8-3.12-12.66-8.6-17.6-16.44-4.94-7.85-7.4-17.89-7.4-30.13,0-16.32,4.34-28.86,13.02-37.63,8.68-8.77,20.96-13.15,36.84-13.15,12.43,0,22.2,2.51,29.31,7.54,7.11,5.02,12.39,12.74,15.85,23.15l-26.92,5.99c-.94-3.01-1.93-5.2-2.96-6.59-1.71-2.33-3.79-4.13-6.26-5.38-2.47-1.26-5.23-1.88-8.28-1.88-6.91,0-12.2,2.78-15.88,8.34-2.78,4.12-4.17,10.6-4.17,19.42,0,10.93,1.66,18.43,4.98,22.48,3.32,4.06,7.99,6.08,14,6.08s10.24-1.64,13.22-4.91c2.98-3.27,5.15-8.03,6.49-14.27Z"/>
        <path class="cls-1" d="M812.72,53.09h30.48v37.28l31.93-37.28h40.54l-36,37.24,37.62,61.42h-37.54l-20.8-40.57-15.75,16.5v24.07h-30.48V53.09Z"/>
        <path class="cls-1" d="M1010.08,123.16c-.72-1.44-2.14-3.48-4.27-6.13-2.13-2.65-3.75-4.38-4.87-5.19-1.66-1.21-4.31-2.42-7.94-3.63,4.53-1.03,8.1-2.34,10.71-3.91,4.09-2.47,7.29-5.69,9.63-9.65,2.34-3.97,3.5-8.69,3.5-14.17,0-6.28-1.52-11.6-4.58-15.98-3.05-4.38-7.06-7.37-12.05-8.99-4.98-1.61-12.18-2.42-21.6-2.42h-50.81v22.07h33.07v-10.06c.69-1.22,1.91-1.72,3.1-1.72.81,0,1.6.24,2.19.68l21.92,16.43c1.21.91,1.21,2.37,0,3.28l-21.92,16.43c-.89.66-2.22.87-3.38.5-1.16-.36-1.91-1.21-1.91-2.15v-9.46h-33.07v62.64h30.62v-40.04h2.69c2.78,0,5.27.76,7.47,2.29,1.62,1.16,3.46,3.7,5.52,7.6l16.3,30.15h34.44l-14.76-28.58Z"/>
      </g>
    </g>
  </g>
</svg>
